<?xml version="1.0" encoding="UTF-8" standalone="no"?>
<svg
   xmlns:dc="http://purl.org/dc/elements/1.1/"
   xmlns:cc="http://creativecommons.org/ns#"
   xmlns:rdf="http://www.w3.org/1999/02/22-rdf-syntax-ns#"
   xmlns:svg="http://www.w3.org/2000/svg"
   xmlns="http://www.w3.org/2000/svg"
   xmlns:sodipodi="http://sodipodi.sourceforge.net/DTD/sodipodi-0.dtd"
   xmlns:inkscape="http://www.inkscape.org/namespaces/inkscape"
   version="1.1"
   data-icon="lock"
   width="128"
   height="128"
   class="iconic iconic-lock"
   viewBox="0 0 128 128"
   id="svg3961"
   inkscape:version="0.48.2 r9819"
   sodipodi:docname="scrambler_icon.svg">
  <metadata
     id="metadata4036">
    <rdf:RDF>
      <cc:Work
         rdf:about="">
        <dc:format>image/svg+xml</dc:format>
        <dc:type
           rdf:resource="http://purl.org/dc/dcmitype/StillImage" />
        <dc:title></dc:title>
      </cc:Work>
    </rdf:RDF>
  </metadata>
  <sodipodi:namedview
     pagecolor="#000000"
     bordercolor="#666666"
     borderopacity="1"
     objecttolerance="10"
     gridtolerance="10"
     guidetolerance="10"
     inkscape:pageopacity="0"
     inkscape:pageshadow="2"
     inkscape:window-width="997"
     inkscape:window-height="776"
     id="namedview4034"
     showgrid="true"
     inkscape:zoom="1"
     inkscape:cx="64.012833"
     inkscape:cy="50.197779"
     inkscape:window-x="148"
     inkscape:window-y="132"
     inkscape:window-maximized="0"
     inkscape:current-layer="g3972"
     inkscape:showpageshadow="false">
    <inkscape:grid
       type="xygrid"
       id="grid4552"
       empspacing="5"
       visible="true"
       enabled="false"
       snapvisiblegridlinesonly="false" />
  </sodipodi:namedview>
  <g
     id="g3963">
    <title
       id="title3965">Lock</title>
  </g>
  <defs
     id="defs3967">
    <clipPath
       id="iconic-size-lg-unlock-clip-0">
      <path
         d="M18 0v66h58v-66h-58zm10 42c-2.2 0-4-1.8-4-4s1.8-4 4-4 4 1.8 4 4-1.8 4-4 4z"
         id="path3970" />
    </clipPath>
  </defs>
  <g
     data-width="94"
     data-height="114"
     class="iconic-lg iconic-container"
     display="inline"
     transform="translate(17 7)"
     id="g3972">
    <path
       style="fill:none;stroke:#48c9b0;stroke-width:8;stroke-miterlimit:10;stroke-opacity:1"
       inkscape:connector-curvature="0"
       id="path3976"
       class="iconic-lock-locked-loop iconic-property-accent iconic-property-stroke"
       d="M 72,51 V 29 C 72,15.2 60.8,4 47,4 33.2,4 22,15.2 22,29 v 22"
       stroke-miterlimit="10" />
    <path
       inkscape:connector-curvature="0"
       id="path3978"
       d="M 2,56 H 92 V 96 H 2 z"
       class="iconic-lock-locked-body iconic-lock-locked-body-main iconic-property-fill"
       style="fill:#48c9b0;fill-opacity:1" />
    <path
       inkscape:connector-curvature="0"
       id="path3980"
       d="m 0,98 v 16 H 94 V 98 H 38 z"
       class="iconic-lock-locked-body iconic-lock-locked-body-bottom iconic-property-fill"
       style="fill:#48c9b0;fill-opacity:1" />
    <path
       inkscape:connector-curvature="0"
       id="path3982"
       d="m 0,48 h 94 v 6 H 0 z"
       class="iconic-lock-locked-body iconic-lock-locked-body-top iconic-property-fill"
       style="fill:#48c9b0;fill-opacity:1" />
    <g
       id="g4558"
       style="fill:#1a1a1a">
      <path
         id="path4556"
         transform="translate(-17,-1)"
         style="opacity:0.77987419999999985;fill:#1a1a1a;fill-opacity:1;fill-rule:nonzero;stroke:none"
         d="M 58,80 61.517949,73.968911 65.035898,67.937822 68.5,74 l 3.464102,6.062178 -6.982051,-0.03109 z M 70,67 c 0,2.761424 -2.238576,5 -5,5 -2.761424,0 -5,-2.238576 -5,-5 0,-2.761423 2.238576,-4.999999 5,-4.999999 2.761424,0 5,2.238576 5,4.999999 z" />
    </g>
  </g>
  <g
     data-width="94"
     data-height="128"
     class="iconic-lg iconic-container"
     display="inline"
     transform="translate(17)"
     id="g3984">
    <g
       class="iconic-lock-unlocked"
       display="none"
       id="g3986">
      <path
         clip-path="url(#iconic-size-lg-unlock-clip-0)"
         stroke="#000"
         stroke-width="8"
         stroke-linecap="round"
         stroke-miterlimit="10"
         d="M72 62.2v-33.2c0-13.8-11.2-25-25-25s-25 11.2-25 25v15"
         class="iconic-unlocked-loop iconic-property-accent iconic-property-stroke"
         fill="none"
         id="path3988" />
      <path
         class="iconic-lock-unlocked-body iconic-lock-unlocked-body-bottom iconic-property-fill"
         d="M0 112h94v16h-94z"
         id="path3990" />
      <path
         class="iconic-lock-unlocked-body iconic-lock-unlocked-body-main iconic-property-fill"
         d="M2 70h90v40h-90z"
         id="path3992" />
      <path
         class="iconic-lock-unlocked-body iconic-lock-unlocked-body-top iconic-property-fill"
         d="M0 62h94v6h-94z"
         id="path3994" />
    </g>
  </g>
  <g
     data-width="24"
     data-height="28"
     class="iconic-md iconic-container"
     display="none"
     transform="scale(4) translate(4 2)"
     id="g3996">
    <g
       class="iconic-lock-locked"
       id="g3998">
      <path
         stroke="#000"
         stroke-width="3"
         stroke-miterlimit="10"
         d="M5.5 14v-6c0-3.6 2.9-6.5 6.5-6.5s6.5 2.9 6.5 6.5v6"
         class="iconic-lock-locked-loop iconic-property-accent iconic-property-stroke"
         fill="none"
         id="path4000" />
      <path
         class="iconic-lock-locked-body iconic-lock-locked-body-main iconic-property-fill"
         d="M0 12h24v11h-24z"
         id="path4002" />
      <path
         class="iconic-lock-locked-body iconic-lock-locked-body-top iconic-property-fill"
         d="M0 24h24v4h-24z"
         id="path4004" />
    </g>
  </g>
  <g
     data-width="24"
     data-height="32"
     class="iconic-md iconic-container"
     display="none"
     transform="scale(4) translate(4)"
     id="g4006">
    <g
       class="iconic-lock-unlocked"
       display="none"
       id="g4008">
      <path
         stroke="#000"
         stroke-width="3"
         stroke-miterlimit="10"
         d="M5.5 11v-3c0-3.6 2.9-6.5 6.5-6.5s6.5 2.9 6.5 6.5v11"
         class="iconic-lock-unlocked-loop iconic-property-accent iconic-property-stroke"
         fill="none"
         id="path4010" />
      <path
         class="iconic-lock-unlocked-body iconic-lock-unlocked-body-main iconic-property-fill"
         d="M0 16h24v11h-24z"
         id="path4012" />
      <path
         class="iconic-lock-unlocked-body iconic-lock-unlocked-body-top iconic-property-fill"
         d="M0 28h24v4h-24z"
         id="path4014" />
    </g>
  </g>
  <g
     data-width="12"
     data-height="14"
     class="iconic-sm iconic-container"
     display="none"
     transform="scale(8) translate(2 1)"
     id="g4016">
    <g
       class="iconic-lock-locked"
       id="g4018">
      <path
         stroke="#000"
         stroke-width="2"
         stroke-miterlimit="10"
         d="M9 8v-4c0-1.7-1.3-3-3-3s-3 1.3-3 3v2"
         class="iconic-lock-locked-loop iconic-property-accent iconic-property-stroke"
         fill="none"
         id="path4020" />
      <path
         class="iconic-lock-locked-body iconic-property-fill"
         d="M0 6h12v8h-12z"
         id="path4022" />
    </g>
  </g>
  <g
     data-width="12"
     data-height="16"
     class="iconic-sm iconic-container"
     display="none"
     transform="scale(8) translate(2)"
     id="g4024">
    <g
       class="iconic-lock-unlocked"
       display="none"
       id="g4026">
      <path
         stroke="#000"
         stroke-width="2"
         stroke-miterlimit="10"
         d="M9 8v-4c0-1.7-1.3-3-3-3s-3 1.3-3 3v1"
         class="iconic-lock-unlocked-loop iconic-property-accent iconic-property-stroke"
         fill="none"
         id="path4028" />
      <path
         class="iconic-lock-unlocked-body iconic-property-fill"
         d="M0 8h12v8h-12z"
         id="path4030" />
    </g>
  </g>
  <script
     class="iconic-api"
     type="application/ecmascript"
     id="script4032">
//
var iconicApis=window._Iconic?window._Iconic.smartIconApis:{};iconicApis[&quot;lock&quot;]=iconicApis[&quot;lock&quot;]||function(t){var e=function(e){t.setAttribute(&quot;data-state&quot;,e);var i,r,n=t.querySelectorAll(&quot;.iconic-lock-locked&quot;),a=t.querySelectorAll(&quot;.iconic-lock-unlocked&quot;);i=r=&quot;none&quot;,&quot;unlocked&quot;===e?r=&quot;inline&quot;:i=&quot;inline&quot;;for(var c=0;c&lt;n.length;c++)n[c].setAttribute(&quot;display&quot;,i),a[c].setAttribute(&quot;display&quot;,r)},i=function(){var i=t.getAttribute(&quot;data-state&quot;);i&amp;&amp;e(i)};return{update:i,setState:e}};
//</script>
</svg>
